<svg xmlns="http://www.w3.org/2000/svg" xmlns:xlink="http://www.w3.org/1999/xlink" width="200" zoomAndPan="magnify" viewBox="0 0 150 149.999998" height="200" preserveAspectRatio="xMidYMid meet" version="1.0"><defs><g/></defs><g fill="#000000" fill-opacity="1"><g transform="translate(76.180387, 129.532767)"><g><path d="M -13.921875 2.796875 C -14.097656 4.398438 -13.375 5.804688 -11.75 7.015625 C -11.476562 7.210938 -10.5 7.820312 -8.8125 8.84375 C -7.28125 9.726562 -6.351562 10.566406 -6.03125 11.359375 C -5.863281 11.785156 -5.804688 12.21875 -5.859375 12.65625 C -5.992188 13.820312 -6.644531 14.570312 -7.8125 14.90625 C -8.34375 15.03125 -8.898438 15.0625 -9.484375 15 C -10.992188 14.832031 -12.070312 14.1875 -12.71875 13.0625 C -13.195312 12.289062 -13.363281 11.382812 -13.21875 10.34375 L -14.109375 10.25 L -14.65625 15.046875 C -14.175781 15.097656 -13.894531 14.976562 -13.8125 14.6875 C -13.75 14.550781 -13.707031 14.398438 -13.6875 14.234375 C -12.425781 15.085938 -10.988281 15.609375 -9.375 15.796875 C -7.382812 16.015625 -5.773438 15.644531 -4.546875 14.6875 C -3.710938 14.019531 -3.238281 13.171875 -3.125 12.140625 C -2.945312 10.609375 -3.648438 9.265625 -5.234375 8.109375 C -5.523438 7.898438 -6.507812 7.289062 -8.1875 6.28125 C -9.71875 5.375 -10.660156 4.515625 -11.015625 3.703125 C -11.179688 3.273438 -11.238281 2.828125 -11.1875 2.359375 C -11.039062 1.078125 -10.332031 0.234375 -9.0625 -0.171875 C -8.488281 -0.335938 -7.863281 -0.382812 -7.1875 -0.3125 C -4.550781 -0.0078125 -3.191406 1.679688 -3.109375 4.765625 C -3.117188 4.972656 -3.125 5.164062 -3.125 5.34375 L -2.25 5.4375 L -1.609375 -0.25 C -2.046875 -0.300781 -2.320312 -0.203125 -2.4375 0.046875 C -2.488281 0.210938 -2.535156 0.476562 -2.578125 0.84375 C -3.878906 -0.25 -5.4375 -0.898438 -7.25 -1.109375 C -9.363281 -1.347656 -11.066406 -0.972656 -12.359375 0.015625 C -13.265625 0.753906 -13.785156 1.679688 -13.921875 2.796875 Z M -13.921875 2.796875 "/></g></g></g><g fill="#000000" fill-opacity="1"><g transform="translate(62.735086, 128.116993)"><g><path d="M -5.4375 4.296875 C -6.675781 7.671875 -8.359375 8.988281 -10.484375 8.25 C -12.578125 7.445312 -13.039062 5.390625 -11.875 2.078125 C -10.59375 -1.398438 -8.910156 -2.769531 -6.828125 -2.03125 C -4.691406 -1.21875 -4.226562 0.890625 -5.4375 4.296875 Z M -10.78125 8.859375 C -9.03125 9.484375 -7.382812 9.410156 -5.84375 8.640625 C -4.507812 7.929688 -3.566406 6.804688 -3.015625 5.265625 C -2.253906 3.171875 -2.429688 1.300781 -3.546875 -0.34375 C -4.285156 -1.4375 -5.273438 -2.207031 -6.515625 -2.65625 C -8.222656 -3.269531 -9.847656 -3.171875 -11.390625 -2.359375 C -12.765625 -1.628906 -13.738281 -0.46875 -14.3125 1.125 C -15.070312 3.21875 -14.875 5.070312 -13.71875 6.6875 C -12.988281 7.695312 -12.007812 8.421875 -10.78125 8.859375 Z M -10.78125 8.859375 "/></g></g></g><g fill="#000000" fill-opacity="1"><g transform="translate(50.489103, 123.535904)"><g><path d="M -6.53125 -3.015625 L -4.84375 -2.03125 L -10.046875 6.890625 L -12.78125 5.296875 L -13.140625 5.890625 L -10.40625 7.484375 L -10.484375 7.609375 C -12.035156 10.273438 -13.285156 11.582031 -14.234375 11.53125 C -14.460938 11.519531 -14.6875 11.453125 -14.90625 11.328125 C -15.382812 11.046875 -15.609375 10.515625 -15.578125 9.734375 C -15.554688 9.003906 -15.570312 8.550781 -15.625 8.375 C -15.726562 8.15625 -15.863281 8 -16.03125 7.90625 C -16.582031 7.582031 -17.050781 7.617188 -17.4375 8.015625 C -17.5 8.085938 -17.554688 8.160156 -17.609375 8.234375 C -17.972656 8.859375 -17.851562 9.566406 -17.25 10.359375 C -16.863281 10.847656 -16.363281 11.269531 -15.75 11.625 C -14.195312 12.53125 -12.691406 12.585938 -11.234375 11.796875 C -10.234375 11.234375 -9.359375 10.300781 -8.609375 9 L -8.40625 8.65625 L -6.6875 9.65625 L -6.328125 9.0625 L -8.046875 8.0625 L -3.671875 0.546875 C -3.242188 -0.179688 -2.75 -0.484375 -2.1875 -0.359375 C -1.90625 -0.273438 -1.53125 -0.0976562 -1.0625 0.171875 L -0.71875 -0.421875 L -6.765625 -3.953125 C -6.972656 -3.597656 -6.96875 -3.34375 -6.75 -3.1875 C -6.6875 -3.125 -6.613281 -3.066406 -6.53125 -3.015625 Z M -6.53125 -3.015625 "/></g></g></g><g fill="#000000" fill-opacity="1"><g transform="translate(43.761133, 119.699501)"><g><path d="M -7.234375 8.28125 L -8.734375 7.09375 L -4.015625 1.15625 C -2.640625 -0.800781 -2.742188 -2.457031 -4.328125 -3.8125 C -5.671875 -4.882812 -7.15625 -4.742188 -8.78125 -3.390625 C -8.789062 -3.367188 -8.804688 -3.351562 -8.828125 -3.34375 L -8.3125 -2.765625 C -7 -3.804688 -5.972656 -4.046875 -5.234375 -3.484375 C -4.492188 -2.847656 -4.546875 -1.988281 -5.390625 -0.90625 L -10.578125 5.640625 L -13.8125 3.0625 L -14.234375 3.59375 L -11 6.171875 L -12.984375 8.671875 L -10.78125 9.671875 L -9.15625 7.625 L -7.65625 8.8125 Z M -7.234375 8.28125 "/></g></g></g><g fill="#000000" fill-opacity="1"><g transform="translate(37.134082, 115.325708)"><g><path d="M -12.203125 2.390625 L -12.75 2.8125 L -9.25 7.171875 L -8.703125 6.75 L -9.453125 5.8125 L -4.390625 -2.5625 C -3.804688 -3.519531 -3.570312 -4.21875 -3.6875 -4.65625 C -3.738281 -4.84375 -3.863281 -5.054688 -4.0625 -5.296875 L -4.4375 -5.78125 L -11.6875 -3.078125 L -8.671875 -7.90625 C -8.054688 -8.832031 -7.800781 -9.488281 -7.90625 -9.875 C -7.9375 -10.070312 -8.054688 -10.300781 -8.265625 -10.5625 L -8.59375 -10.96875 L -18.640625 -7.203125 C -19.203125 -6.992188 -19.59375 -6.984375 -19.8125 -7.171875 C -19.875 -7.210938 -19.929688 -7.269531 -19.984375 -7.34375 C -20.242188 -7.65625 -20.5 -7.738281 -20.75 -7.59375 C -20.820312 -7.550781 -20.894531 -7.503906 -20.96875 -7.453125 L -18.453125 -4.3125 L -17.90625 -4.734375 L -19.078125 -6.203125 L -10.078125 -9.625 L -15.28125 -1.453125 L -16.4375 -2.90625 L -16.984375 -2.484375 L -14.21875 0.96875 L -12.34375 -2.046875 L -5.828125 -4.5 L -10.96875 3.921875 Z M -12.203125 2.390625 "/></g></g></g><g fill="#000000" fill-opacity="1"><g transform="translate(26.366275, 101.600636)"><g><path d="M -4.078125 -9.90625 C -4.609375 -11.113281 -5.535156 -11.566406 -6.859375 -11.265625 C -7.109375 -11.179688 -7.382812 -11.085938 -7.6875 -10.984375 L -7.421875 -10.3125 C -6.160156 -10.738281 -5.410156 -10.691406 -5.171875 -10.171875 C -5.003906 -9.742188 -5.332031 -9.34375 -6.15625 -8.96875 L -11.453125 -6.625 C -13.984375 -5.457031 -14.648438 -3.503906 -13.453125 -0.765625 C -12.597656 1.171875 -11.585938 2.265625 -10.421875 2.515625 C -10.046875 2.585938 -9.710938 2.5625 -9.421875 2.4375 C -8.890625 2.195312 -8.679688 1.796875 -8.796875 1.234375 C -8.828125 1.109375 -8.863281 0.992188 -8.90625 0.890625 C -9.101562 0.441406 -9.519531 0.238281 -10.15625 0.28125 C -10.914062 0.332031 -11.347656 0.359375 -11.453125 0.359375 C -12.015625 0.222656 -12.4375 -0.160156 -12.71875 -0.796875 C -13.351562 -2.296875 -12.816406 -3.429688 -11.109375 -4.203125 L -9.53125 -4.90625 C -7.664062 -0.75 -5.703125 1.082031 -3.640625 0.59375 C -3.441406 0.550781 -3.234375 0.476562 -3.015625 0.375 C -1.691406 -0.207031 -1.0625 -1.179688 -1.125 -2.546875 C -1.144531 -3.046875 -1.269531 -3.546875 -1.5 -4.046875 C -2.03125 -5.265625 -2.894531 -6.097656 -4.09375 -6.546875 C -4.539062 -6.703125 -4.984375 -6.773438 -5.421875 -6.765625 C -4.003906 -7.640625 -3.554688 -8.6875 -4.078125 -9.90625 Z M -2.921875 -4.53125 C -2.453125 -3.46875 -2.78125 -2.601562 -3.90625 -1.9375 C -4.050781 -1.851562 -4.21875 -1.769531 -4.40625 -1.6875 C -5.53125 -1.195312 -6.519531 -1.503906 -7.375 -2.609375 C -7.8125 -3.179688 -8.289062 -4.050781 -8.8125 -5.21875 L -6.75 -6.140625 C -5.457031 -6.367188 -4.394531 -6.117188 -3.5625 -5.390625 C -3.269531 -5.117188 -3.054688 -4.832031 -2.921875 -4.53125 Z M -2.921875 -4.53125 "/></g></g></g><g fill="#000000" fill-opacity="1"><g transform="translate(21.443744, 90.467236)"><g><path d="M -2.234375 -6.78125 L -1.796875 -4.859375 L -7.6875 -3.53125 C -9.257812 -3.3125 -10.53125 -3.570312 -11.5 -4.3125 C -11.8125 -4.5625 -11.992188 -4.789062 -12.046875 -5 C -12.109375 -5.269531 -11.941406 -5.582031 -11.546875 -5.9375 C -11.117188 -6.320312 -10.894531 -6.671875 -10.875 -6.984375 C -10.863281 -7.109375 -10.875 -7.234375 -10.90625 -7.359375 C -11.039062 -7.953125 -11.398438 -8.273438 -11.984375 -8.328125 C -12.128906 -8.335938 -12.265625 -8.332031 -12.390625 -8.3125 C -13.210938 -8.125 -13.625 -7.597656 -13.625 -6.734375 C -13.613281 -6.535156 -13.582031 -6.34375 -13.53125 -6.15625 C -13.28125 -5.050781 -12.601562 -4.171875 -11.5 -3.515625 C -11.019531 -3.253906 -10.503906 -3.066406 -9.953125 -2.953125 L -12.515625 -2.265625 L -11.609375 1.765625 L -10.9375 1.609375 L -11.359375 -0.296875 L -2.859375 -2.203125 C -2.035156 -2.390625 -1.492188 -2.257812 -1.234375 -1.8125 C -1.097656 -1.5625 -0.972656 -1.175781 -0.859375 -0.65625 L -0.1875 -0.8125 L -1.71875 -7.609375 C -2.113281 -7.515625 -2.296875 -7.332031 -2.265625 -7.0625 C -2.265625 -6.988281 -2.253906 -6.894531 -2.234375 -6.78125 Z M -2.234375 -6.78125 "/></g></g></g><g fill="#000000" fill-opacity="1"><g transform="translate(19.088547, 80.878738)"><g><path d="M -11.53125 -6.515625 C -11.5625 -7.765625 -11.015625 -8.585938 -9.890625 -8.984375 C -9.554688 -9.109375 -9.195312 -9.175781 -8.8125 -9.1875 C -7.914062 -9.21875 -7.347656 -8.828125 -7.109375 -8.015625 C -6.992188 -7.566406 -6.9375 -6.941406 -6.9375 -6.140625 L -6.921875 -3.453125 C -9.078125 -3.453125 -10.5 -4.0625 -11.1875 -5.28125 C -11.394531 -5.664062 -11.507812 -6.078125 -11.53125 -6.515625 Z M -3.03125 -11.65625 L -3.25 -10.953125 C -1.945312 -10.398438 -1.140625 -9.488281 -0.828125 -8.21875 C -0.765625 -7.925781 -0.734375 -7.644531 -0.734375 -7.375 C -0.671875 -5.4375 -1.859375 -4.207031 -4.296875 -3.6875 C -4.859375 -3.582031 -5.476562 -3.507812 -6.15625 -3.46875 L -6.1875 -6.625 C -6.226562 -8.96875 -6.515625 -10.453125 -7.046875 -11.078125 C -7.429688 -11.492188 -7.9375 -11.691406 -8.5625 -11.671875 C -9.863281 -11.628906 -10.867188 -10.9375 -11.578125 -9.59375 C -12.035156 -8.65625 -12.242188 -7.601562 -12.203125 -6.4375 C -12.140625 -4.21875 -11.207031 -2.617188 -9.40625 -1.640625 C -8.351562 -1.085938 -7.160156 -0.832031 -5.828125 -0.875 C -3.484375 -0.9375 -1.785156 -1.835938 -0.734375 -3.578125 C -0.160156 -4.566406 0.101562 -5.675781 0.0625 -6.90625 C 0 -8.957031 -0.785156 -10.425781 -2.296875 -11.3125 C -2.546875 -11.425781 -2.789062 -11.539062 -3.03125 -11.65625 Z M -3.03125 -11.65625 "/></g></g></g><g fill="#000000" fill-opacity="1"><g transform="translate(18.924886, 68.944252)"><g/></g></g><g fill="#000000" fill-opacity="1"><g transform="translate(18.94309, 64.487346)"><g><path d="M -7.140625 -16.640625 L -12 -17.90625 L -15.578125 -5.53125 L -14.875 -5.328125 L -14.25 -7.4375 L 0.203125 -3.265625 L -0.421875 -1.15625 L 0.265625 -0.953125 L 3.84375 -13.328125 L -0.90625 -14.84375 L -1.078125 -14.265625 L 0.140625 -13.453125 C 1.523438 -12.554688 2.207031 -11.597656 2.1875 -10.578125 C 2.1875 -10.304688 2.148438 -10.039062 2.078125 -9.78125 L 0.9375 -5.796875 L -6.171875 -7.84375 L -4.625 -13.21875 L -5.390625 -13.4375 L -6.9375 -8.0625 L -13.515625 -9.96875 L -12.375 -13.953125 C -11.988281 -15.304688 -10.820312 -16 -8.875 -16.03125 C -8.84375 -16.039062 -8.8125 -16.039062 -8.78125 -16.03125 L -7.3125 -16.0625 Z M -7.140625 -16.640625 "/></g></g></g><g fill="#000000" fill-opacity="1"><g transform="translate(22.641228, 51.012295)"><g><path d="M 2.546875 -5.703125 L 1.96875 -4.71875 L -3.25 -7.78125 C -4.664062 -8.664062 -5.410156 -9.765625 -5.484375 -11.078125 C -5.503906 -11.628906 -5.390625 -12.113281 -5.140625 -12.53125 C -4.578125 -13.488281 -3.75 -13.863281 -2.65625 -13.65625 C -2.238281 -13.550781 -1.828125 -13.378906 -1.421875 -13.140625 L 3.359375 -10.34375 C 4.066406 -9.925781 4.378906 -9.472656 4.296875 -8.984375 C 4.242188 -8.703125 4.082031 -8.332031 3.8125 -7.875 L 4.40625 -7.53125 L 7.546875 -12.890625 C 7.191406 -13.097656 6.9375 -13.09375 6.78125 -12.875 C 6.71875 -12.820312 6.660156 -12.742188 6.609375 -12.640625 L 5.953125 -11.53125 L 0.03125 -15 C -1.632812 -15.96875 -3.113281 -16.070312 -4.40625 -15.3125 C -4.957031 -14.976562 -5.394531 -14.535156 -5.71875 -13.984375 C -6.40625 -12.804688 -6.503906 -11.554688 -6.015625 -10.234375 C -5.859375 -9.773438 -5.628906 -9.351562 -5.328125 -8.96875 L -7.59375 -10.171875 L -9.703125 -6.5625 L -9.109375 -6.21875 L -8.109375 -7.9375 L -0.609375 -3.546875 C 0.117188 -3.117188 0.425781 -2.644531 0.3125 -2.125 C 0.238281 -1.832031 0.0664062 -1.457031 -0.203125 -1 L 0.390625 -0.65625 L 3.484375 -5.953125 C 3.128906 -6.160156 2.875 -6.148438 2.71875 -5.921875 C 2.65625 -5.867188 2.597656 -5.796875 2.546875 -5.703125 Z M 2.546875 -5.703125 "/></g></g></g><g fill="#000000" fill-opacity="1"><g transform="translate(29.820829, 38.699959)"><g><path d="M -2.875 -8 C -4.539062 -9.582031 -4.925781 -10.953125 -4.03125 -12.109375 C -3.957031 -12.234375 -3.875 -12.335938 -3.78125 -12.421875 C -2.75 -13.503906 -1.492188 -13.46875 -0.015625 -12.3125 C 0.179688 -12.132812 0.40625 -11.929688 0.65625 -11.703125 C 2.28125 -9.921875 2.609375 -8.429688 1.640625 -7.234375 C 0.523438 -6.066406 -0.859375 -6.207031 -2.515625 -7.65625 C -2.640625 -7.769531 -2.757812 -7.882812 -2.875 -8 Z M -4.265625 -12.921875 C -5.484375 -11.640625 -6.015625 -10.257812 -5.859375 -8.78125 C -5.742188 -7.78125 -5.316406 -6.925781 -4.578125 -6.21875 C -3.585938 -5.269531 -2.296875 -4.953125 -0.703125 -5.265625 C -0.515625 -5.316406 -0.332031 -5.363281 -0.15625 -5.40625 C -0.945312 -4.582031 -1.097656 -3.707031 -0.609375 -2.78125 C -0.472656 -2.5625 -0.300781 -2.351562 -0.09375 -2.15625 C 0.613281 -1.5 1.398438 -1.273438 2.265625 -1.484375 C 2.316406 -0.628906 2.570312 0.0078125 3.03125 0.4375 C 3.757812 1.132812 4.71875 1.21875 5.90625 0.6875 C 6.6875 0.351562 7.460938 -0.210938 8.234375 -1.015625 C 10.179688 -3.054688 10.972656 -4.875 10.609375 -6.46875 C 10.472656 -6.988281 10.222656 -7.425781 9.859375 -7.78125 C 8.671875 -8.90625 7.359375 -8.882812 5.921875 -7.71875 C 5.722656 -7.5625 5.535156 -7.390625 5.359375 -7.203125 L 1.75 -3.578125 C 1.15625 -3.046875 0.625 -2.988281 0.15625 -3.40625 C -0.175781 -3.726562 -0.195312 -4.128906 0.09375 -4.609375 C 0.164062 -4.710938 0.25 -4.820312 0.34375 -4.9375 L 2.0625 -6.6875 L 2.109375 -6.75 C 3.273438 -7.96875 3.789062 -9.328125 3.65625 -10.828125 C 3.53125 -11.878906 3.082031 -12.773438 2.3125 -13.515625 C 1.3125 -14.441406 0.164062 -14.8125 -1.125 -14.625 C -1.394531 -15.257812 -1.382812 -15.773438 -1.09375 -16.171875 C -0.914062 -16.359375 -0.609375 -16.46875 -0.171875 -16.5 C 0.0976562 -16.507812 0.296875 -16.582031 0.421875 -16.71875 C 0.742188 -17.050781 0.769531 -17.410156 0.5 -17.796875 C 0.4375 -17.867188 0.390625 -17.921875 0.359375 -17.953125 C -0.078125 -18.367188 -0.578125 -18.441406 -1.140625 -18.171875 C -1.328125 -18.085938 -1.5 -17.960938 -1.65625 -17.796875 C -2.25 -17.171875 -2.429688 -16.378906 -2.203125 -15.421875 C -2.128906 -15.085938 -2.003906 -14.769531 -1.828125 -14.46875 C -2.742188 -14.175781 -3.554688 -13.660156 -4.265625 -12.921875 Z M 7.71875 -1.515625 C 6.425781 -0.171875 5.273438 0.351562 4.265625 0.0625 C 3.984375 -0.0078125 3.75 -0.132812 3.5625 -0.3125 C 3.226562 -0.664062 3.023438 -1.144531 2.953125 -1.75 C 3.253906 -1.914062 3.507812 -2.109375 3.71875 -2.328125 L 6.859375 -5.5625 C 7.765625 -6.476562 8.476562 -6.835938 9 -6.640625 C 9.175781 -6.566406 9.335938 -6.460938 9.484375 -6.328125 C 10.078125 -5.753906 9.984375 -4.796875 9.203125 -3.453125 C 8.816406 -2.804688 8.320312 -2.160156 7.71875 -1.515625 Z M 7.71875 -1.515625 "/></g></g></g><g fill="#000000" fill-opacity="1"><g transform="translate(38.443122, 29.869156)"><g><path d="M 4.828125 -4.421875 L 3.78125 -3.65625 L -2.78125 -12.515625 L -6.328125 -9.875 L -5.921875 -9.3125 L -4.234375 -10.5625 L 0.953125 -3.578125 C 1.453125 -2.898438 1.519531 -2.320312 1.15625 -1.84375 C 0.988281 -1.625 0.679688 -1.347656 0.234375 -1.015625 L 0.640625 -0.46875 L 5.78125 -4.296875 C 5.539062 -4.617188 5.300781 -4.707031 5.0625 -4.5625 C 4.988281 -4.53125 4.910156 -4.484375 4.828125 -4.421875 Z M -4.859375 -15.828125 C -5.253906 -16.359375 -5.78125 -16.578125 -6.4375 -16.484375 C -6.695312 -16.429688 -6.921875 -16.332031 -7.109375 -16.1875 C -7.660156 -15.789062 -7.875 -15.257812 -7.75 -14.59375 C -7.6875 -14.34375 -7.582031 -14.117188 -7.4375 -13.921875 C -7.03125 -13.367188 -6.492188 -13.15625 -5.828125 -13.28125 C -5.585938 -13.34375 -5.375 -13.441406 -5.1875 -13.578125 C -4.65625 -13.984375 -4.445312 -14.507812 -4.5625 -15.15625 C -4.625 -15.414062 -4.722656 -15.640625 -4.859375 -15.828125 Z M -4.859375 -15.828125 "/></g></g></g><g fill="#000000" fill-opacity="1"><g transform="translate(43.725875, 25.379745)"><g><path d="M 5.296875 -3.3125 L 4.28125 -2.828125 L 1.65625 -8.265625 C 0.96875 -9.785156 0.957031 -11.113281 1.625 -12.25 C 1.925781 -12.71875 2.296875 -13.054688 2.734375 -13.265625 C 3.734375 -13.753906 4.628906 -13.597656 5.421875 -12.796875 C 5.710938 -12.484375 5.960938 -12.113281 6.171875 -11.6875 L 8.578125 -6.6875 C 8.929688 -5.945312 8.929688 -5.40625 8.578125 -5.0625 C 8.390625 -4.863281 8.054688 -4.648438 7.578125 -4.421875 L 7.875 -3.796875 L 13.453125 -6.484375 C 13.273438 -6.847656 13.0625 -6.988281 12.8125 -6.90625 C 12.738281 -6.894531 12.648438 -6.863281 12.546875 -6.8125 L 11.390625 -6.25 L 8.40625 -12.421875 C 7.570312 -14.160156 6.398438 -15.070312 4.890625 -15.15625 C 4.253906 -15.195312 3.644531 -15.078125 3.0625 -14.796875 C 1.84375 -14.203125 1.0625 -13.21875 0.71875 -11.84375 C 0.601562 -11.382812 0.5625 -10.90625 0.59375 -10.40625 L -0.625 -12.6875 L -4.390625 -10.875 L -4.09375 -10.25 L -2.296875 -11.109375 L 1.484375 -3.265625 C 1.847656 -2.503906 1.832031 -1.941406 1.4375 -1.578125 C 1.21875 -1.390625 0.867188 -1.179688 0.390625 -0.953125 L 0.6875 -0.328125 L 6.203125 -2.984375 C 6.023438 -3.347656 5.8125 -3.488281 5.5625 -3.40625 C 5.488281 -3.394531 5.398438 -3.363281 5.296875 -3.3125 Z M 5.296875 -3.3125 "/></g></g></g><g fill="#000000" fill-opacity="1"><g transform="translate(56.589033, 19.196058)"><g><path d="M 4.203125 -12.53125 C 5.421875 -12.8125 6.335938 -12.4375 6.953125 -11.40625 C 7.128906 -11.101562 7.265625 -10.765625 7.359375 -10.390625 C 7.546875 -9.515625 7.269531 -8.882812 6.53125 -8.5 C 6.101562 -8.300781 5.5 -8.125 4.71875 -7.96875 L 2.0625 -7.4375 C 1.664062 -9.5625 2 -11.078125 3.0625 -11.984375 C 3.394531 -12.253906 3.773438 -12.4375 4.203125 -12.53125 Z M 10.875 -5.1875 L 10.140625 -5.25 C 9.835938 -3.863281 9.09375 -2.90625 7.90625 -2.375 C 7.632812 -2.25 7.363281 -2.160156 7.09375 -2.109375 C 5.207031 -1.679688 3.773438 -2.613281 2.796875 -4.90625 C 2.585938 -5.445312 2.398438 -6.046875 2.234375 -6.703125 L 5.328125 -7.34375 C 7.628906 -7.820312 9.03125 -8.378906 9.53125 -9.015625 C 9.863281 -9.460938 9.960938 -9.988281 9.828125 -10.59375 C 9.546875 -11.863281 8.679688 -12.71875 7.234375 -13.15625 C 6.234375 -13.4375 5.160156 -13.453125 4.015625 -13.203125 C 1.859375 -12.710938 0.460938 -11.488281 -0.171875 -9.53125 C -0.515625 -8.40625 -0.539062 -7.191406 -0.25 -5.890625 C 0.257812 -3.597656 1.460938 -2.097656 3.359375 -1.390625 C 4.441406 -1.015625 5.582031 -0.960938 6.78125 -1.234375 C 8.78125 -1.679688 10.078125 -2.738281 10.671875 -4.40625 C 10.742188 -4.65625 10.8125 -4.914062 10.875 -5.1875 Z M 10.875 -5.1875 "/></g></g></g><g fill="#000000" fill-opacity="1"><g transform="translate(67.909585, 16.528608)"><g><path d="M 6.6875 -11.421875 C 7.9375 -11.441406 8.753906 -10.882812 9.140625 -9.75 C 9.253906 -9.40625 9.316406 -9.039062 9.328125 -8.65625 C 9.335938 -7.757812 8.9375 -7.203125 8.125 -6.984375 C 7.664062 -6.867188 7.035156 -6.816406 6.234375 -6.828125 L 3.546875 -6.875 C 3.585938 -9.03125 4.222656 -10.441406 5.453125 -11.109375 C 5.835938 -11.304688 6.25 -11.410156 6.6875 -11.421875 Z M 11.6875 -2.859375 L 11 -3.078125 C 10.425781 -1.785156 9.5 -0.992188 8.21875 -0.703125 C 7.9375 -0.648438 7.660156 -0.617188 7.390625 -0.609375 C 5.453125 -0.578125 4.238281 -1.785156 3.75 -4.234375 C 3.65625 -4.804688 3.59375 -5.429688 3.5625 -6.109375 L 6.71875 -6.09375 C 9.0625 -6.09375 10.546875 -6.351562 11.171875 -6.875 C 11.597656 -7.25 11.804688 -7.75 11.796875 -8.375 C 11.773438 -9.675781 11.097656 -10.691406 9.765625 -11.421875 C 8.835938 -11.890625 7.789062 -12.117188 6.625 -12.109375 C 4.40625 -12.066406 2.789062 -11.15625 1.78125 -9.375 C 1.207031 -8.332031 0.929688 -7.144531 0.953125 -5.8125 C 0.992188 -3.46875 1.867188 -1.757812 3.578125 -0.6875 C 4.554688 -0.09375 5.660156 0.191406 6.890625 0.171875 C 8.941406 0.140625 10.425781 -0.625 11.34375 -2.125 C 11.46875 -2.363281 11.582031 -2.609375 11.6875 -2.859375 Z M 11.6875 -2.859375 "/></g></g></g><g fill="#000000" fill-opacity="1"><g transform="translate(79.606495, 16.330861)"><g><path d="M 7.125 0.5625 L 5.1875 0.21875 L 6.234375 -5.734375 C 6.640625 -7.265625 7.367188 -8.332031 8.421875 -8.9375 C 8.773438 -9.144531 9.0625 -9.226562 9.28125 -9.1875 C 9.539062 -9.132812 9.757812 -8.859375 9.9375 -8.359375 C 10.132812 -7.804688 10.367188 -7.457031 10.640625 -7.3125 C 10.765625 -7.257812 10.890625 -7.222656 11.015625 -7.203125 C 11.609375 -7.097656 12.039062 -7.304688 12.3125 -7.828125 C 12.382812 -7.960938 12.429688 -8.09375 12.453125 -8.21875 C 12.597656 -9.050781 12.273438 -9.628906 11.484375 -9.953125 C 11.296875 -10.015625 11.101562 -10.066406 10.90625 -10.109375 C 9.789062 -10.304688 8.71875 -10.019531 7.6875 -9.25 C 7.257812 -8.90625 6.890625 -8.5 6.578125 -8.03125 L 6.9375 -10.671875 L 2.859375 -11.390625 L 2.734375 -10.703125 L 4.65625 -10.359375 L 3.140625 -1.796875 C 2.992188 -0.960938 2.660156 -0.503906 2.140625 -0.421875 C 1.867188 -0.398438 1.46875 -0.4375 0.9375 -0.53125 L 0.8125 0.140625 L 7.671875 1.359375 C 7.742188 0.960938 7.648438 0.726562 7.390625 0.65625 C 7.328125 0.613281 7.238281 0.582031 7.125 0.5625 Z M 7.125 0.5625 "/></g></g></g><g fill="#000000" fill-opacity="1"><g transform="translate(89.60822, 18.23772)"><g/></g></g><g fill="#000000" fill-opacity="1"><g transform="translate(94.232332, 19.673846)"><g><path d="M 4.453125 0.359375 C 4.691406 -0.234375 4.601562 -0.765625 4.1875 -1.234375 C 4.03125 -1.410156 3.851562 -1.546875 3.65625 -1.640625 C 3.070312 -1.878906 2.550781 -1.785156 2.09375 -1.359375 C 1.894531 -1.191406 1.753906 -1.003906 1.671875 -0.796875 C 1.421875 -0.203125 1.515625 0.332031 1.953125 0.8125 C 2.109375 0.96875 2.289062 1.085938 2.5 1.171875 C 3.082031 1.421875 3.613281 1.332031 4.09375 0.90625 C 4.25 0.738281 4.367188 0.554688 4.453125 0.359375 Z M 4.453125 0.359375 "/></g></g></g><g fill="#000000" fill-opacity="1"><g transform="translate(98.838239, 21.564849)"><g/></g></g><g fill="#000000" fill-opacity="1"><g transform="translate(103.009108, 22.90448)"><g><path d="M 11.046875 -12.28125 L 10.59375 -11.71875 L 12.328125 -10.34375 L 2.953125 1.421875 L 1.21875 0.046875 L 0.765625 0.609375 L 6.78125 5.40625 C 8.738281 6.96875 10.835938 7.644531 13.078125 7.4375 C 15.234375 7.21875 17.0625 6.164062 18.5625 4.28125 C 20.519531 1.832031 21.054688 -0.6875 20.171875 -3.28125 C 19.617188 -4.875 18.597656 -6.265625 17.109375 -7.453125 Z M 16.609375 -6.921875 C 18.742188 -5.222656 19.296875 -3.148438 18.265625 -0.703125 C 17.835938 0.253906 17.195312 1.269531 16.34375 2.34375 C 13.164062 6.3125 10.144531 7.15625 7.28125 4.875 L 5.015625 3.0625 L 14.390625 -8.703125 Z M 16.609375 -6.921875 "/></g></g></g><g fill="#000000" fill-opacity="1"><g transform="translate(116.310151, 33.701024)"><g><path d="M 6.203125 8.75 C 6.984375 9.800781 7.976562 10.035156 9.1875 9.453125 C 9.425781 9.316406 9.675781 9.160156 9.9375 8.984375 L 9.53125 8.40625 C 8.394531 9.09375 7.648438 9.210938 7.296875 8.765625 C 7.066406 8.378906 7.300781 7.910156 8 7.359375 L 12.640625 3.890625 C 14.847656 2.191406 15.066406 0.144531 13.296875 -2.25 C 12.023438 -3.957031 10.796875 -4.796875 9.609375 -4.765625 C 9.222656 -4.753906 8.90625 -4.65625 8.65625 -4.46875 C 8.1875 -4.125 8.066406 -3.691406 8.296875 -3.171875 C 8.359375 -3.054688 8.425781 -2.953125 8.5 -2.859375 C 8.789062 -2.472656 9.226562 -2.367188 9.8125 -2.546875 C 10.550781 -2.765625 10.972656 -2.878906 11.078125 -2.890625 C 11.660156 -2.890625 12.160156 -2.613281 12.578125 -2.0625 C 13.535156 -0.738281 13.265625 0.488281 11.765625 1.625 L 10.390625 2.65625 C 7.648438 -0.976562 5.328125 -2.328125 3.421875 -1.390625 C 3.234375 -1.296875 3.046875 -1.175781 2.859375 -1.03125 C 1.703125 -0.164062 1.304688 0.921875 1.671875 2.234375 C 1.796875 2.722656 2.023438 3.1875 2.359375 3.625 C 3.160156 4.695312 4.191406 5.3125 5.453125 5.46875 C 5.921875 5.519531 6.367188 5.488281 6.796875 5.375 C 5.617188 6.5625 5.421875 7.6875 6.203125 8.75 Z M 3.859375 3.765625 C 3.171875 2.835938 3.296875 1.914062 4.234375 1 C 4.367188 0.894531 4.515625 0.785156 4.671875 0.671875 C 5.660156 -0.0664062 6.691406 0.00390625 7.765625 0.890625 C 8.316406 1.359375 8.984375 2.101562 9.765625 3.125 L 7.953125 4.484375 C 6.742188 4.992188 5.648438 4.988281 4.671875 4.46875 C 4.328125 4.269531 4.054688 4.035156 3.859375 3.765625 Z M 3.859375 3.765625 "/></g></g></g><g fill="#000000" fill-opacity="1"><g transform="translate(123.563209, 43.563726)"><g><path d="M 10.0625 -4.421875 L 10.921875 -2.703125 L 4.140625 0.671875 C 2.046875 1.847656 1.429688 3.382812 2.296875 5.28125 C 3.066406 6.820312 4.46875 7.328125 6.5 6.796875 C 6.519531 6.785156 6.539062 6.773438 6.5625 6.765625 L 6.359375 6.03125 C 4.710938 6.414062 3.679688 6.195312 3.265625 5.375 C 2.859375 4.5 3.265625 3.742188 4.484375 3.109375 L 11.953125 -0.609375 L 13.796875 3.09375 L 14.421875 2.78125 L 12.578125 -0.921875 L 15.421875 -2.34375 L 13.875 -4.171875 L 11.546875 -3.015625 L 10.6875 -4.734375 Z M 10.0625 -4.421875 "/></g></g></g><g fill="#000000" fill-opacity="1"><g transform="translate(127.424719, 50.690453)"><g><path d="M 2.71875 10.375 C 3.082031 11.632812 3.9375 12.207031 5.28125 12.09375 C 5.550781 12.039062 5.832031 11.984375 6.125 11.921875 L 5.953125 11.234375 C 4.648438 11.472656 3.914062 11.316406 3.75 10.765625 C 3.65625 10.328125 4.035156 9.972656 4.890625 9.703125 L 10.453125 8.09375 C 13.117188 7.28125 14.050781 5.4375 13.25 2.5625 C 12.65625 0.53125 11.789062 -0.6875 10.65625 -1.09375 C 10.300781 -1.207031 9.972656 -1.222656 9.671875 -1.140625 C 9.109375 -0.972656 8.84375 -0.609375 8.875 -0.046875 C 8.882812 0.0664062 8.910156 0.179688 8.953125 0.296875 C 9.085938 0.765625 9.460938 1.023438 10.078125 1.078125 C 10.847656 1.128906 11.285156 1.164062 11.390625 1.1875 C 11.929688 1.394531 12.300781 1.832031 12.5 2.5 C 12.925781 4.070312 12.242188 5.128906 10.453125 5.671875 L 8.796875 6.140625 C 7.503906 1.773438 5.804688 -0.300781 3.703125 -0.09375 C 3.492188 -0.0703125 3.273438 -0.03125 3.046875 0.03125 C 1.648438 0.4375 0.894531 1.316406 0.78125 2.671875 C 0.726562 3.171875 0.78125 3.6875 0.9375 4.21875 C 1.300781 5.5 2.046875 6.441406 3.171875 7.046875 C 3.609375 7.242188 4.035156 7.375 4.453125 7.4375 C 2.941406 8.113281 2.363281 9.09375 2.71875 10.375 Z M 2.296875 4.890625 C 1.972656 3.773438 2.410156 2.957031 3.609375 2.4375 C 3.765625 2.382812 3.941406 2.328125 4.140625 2.265625 C 5.316406 1.929688 6.253906 2.363281 6.953125 3.5625 C 7.304688 4.195312 7.671875 5.128906 8.046875 6.359375 L 5.875 6.984375 C 4.5625 7.035156 3.535156 6.648438 2.796875 5.828125 C 2.554688 5.515625 2.390625 5.203125 2.296875 4.890625 Z M 2.296875 4.890625 "/></g></g></g><g fill="#000000" fill-opacity="1"><g transform="translate(130.649873, 62.668503)"><g/></g></g><g fill="#000000" fill-opacity="1"><g transform="translate(131.83916, 66.915865)"><g><path d="M -0.8125 17.015625 C -0.394531 17.035156 -0.160156 16.898438 -0.109375 16.609375 C -0.078125 16.515625 -0.0625 16.421875 -0.0625 16.328125 L -0.015625 15.421875 L 16.03125 9.859375 L 16.09375 8.625 L 0.640625 1.765625 L 0.71875 0.03125 L 0 0 L -0.234375 4.921875 C 0.179688 4.941406 0.414062 4.8125 0.46875 4.53125 C 0.5 4.4375 0.515625 4.347656 0.515625 4.265625 L 0.578125 2.859375 L 5.8125 5.171875 L 5.546875 10.84375 L 0.109375 12.65625 L 0.203125 10.8125 L -0.515625 10.78125 Z M 6.34375 10.5625 L 6.578125 5.515625 L 13.015625 8.34375 Z M 6.34375 10.5625 "/></g></g></g><g fill="#000000" fill-opacity="1"><g transform="translate(131.189656, 82.475227)"><g><path d="M -1.234375 6.109375 L -0.890625 5.046875 L 4.875 6.890625 C 6.445312 7.429688 7.414062 8.332031 7.78125 9.59375 C 7.90625 10.144531 7.894531 10.648438 7.75 11.109375 C 7.40625 12.171875 6.675781 12.710938 5.5625 12.734375 C 5.132812 12.734375 4.695312 12.660156 4.25 12.515625 L -1.03125 10.828125 C -1.8125 10.578125 -2.210938 10.203125 -2.234375 9.703125 C -2.242188 9.421875 -2.164062 9.023438 -2 8.515625 L -2.65625 8.3125 L -4.546875 14.234375 C -4.160156 14.359375 -3.910156 14.296875 -3.796875 14.046875 C -3.753906 13.972656 -3.71875 13.882812 -3.6875 13.78125 L -3.296875 12.5625 L 3.234375 14.65625 C 5.066406 15.238281 6.535156 15.015625 7.640625 13.984375 C 8.109375 13.535156 8.441406 13.003906 8.640625 12.390625 C 9.054688 11.097656 8.875 9.859375 8.09375 8.671875 C 7.84375 8.265625 7.53125 7.90625 7.15625 7.59375 L 9.640625 8.265625 L 10.90625 4.296875 L 10.265625 4.09375 L 9.65625 5.984375 L 1.359375 3.328125 C 0.554688 3.066406 0.15625 2.671875 0.15625 2.140625 C 0.175781 1.835938 0.265625 1.4375 0.421875 0.9375 L -0.234375 0.734375 L -2.09375 6.5625 C -1.707031 6.6875 -1.457031 6.625 -1.34375 6.375 C -1.300781 6.3125 -1.265625 6.222656 -1.234375 6.109375 Z M -1.234375 6.109375 "/></g></g></g><g fill="#000000" fill-opacity="1"><g transform="translate(126.870341, 96.058069)"><g><path d="M -5.75 9.046875 C -6.425781 10.171875 -6.269531 11.179688 -5.28125 12.078125 C -5.0625 12.253906 -4.828125 12.429688 -4.578125 12.609375 L -4.171875 12 C -5.242188 11.21875 -5.640625 10.578125 -5.359375 10.078125 C -5.085938 9.710938 -4.5625 9.75 -3.78125 10.1875 L 1.1875 13.171875 C 3.582031 14.578125 5.554688 14.007812 7.109375 11.46875 C 8.203125 9.644531 8.519531 8.179688 8.0625 7.078125 C 7.894531 6.722656 7.675781 6.46875 7.40625 6.3125 C 6.90625 6.007812 6.460938 6.066406 6.078125 6.484375 C 5.992188 6.578125 5.921875 6.675781 5.859375 6.78125 C 5.609375 7.195312 5.675781 7.648438 6.0625 8.140625 C 6.539062 8.722656 6.8125 9.066406 6.875 9.171875 C 7.09375 9.703125 7.019531 10.265625 6.65625 10.859375 C 5.789062 12.242188 4.554688 12.460938 2.953125 11.515625 L 1.46875 10.625 C 3.800781 6.707031 4.171875 4.046875 2.578125 2.640625 C 2.421875 2.503906 2.238281 2.375 2.03125 2.25 C 0.789062 1.5 -0.363281 1.546875 -1.4375 2.390625 C -1.832031 2.691406 -2.171875 3.082031 -2.453125 3.5625 C -3.140625 4.695312 -3.320312 5.878906 -3 7.109375 C -2.863281 7.578125 -2.664062 7.976562 -2.40625 8.3125 C -3.945312 7.675781 -5.0625 7.921875 -5.75 9.046875 Z M -2.03125 5 C -1.4375 4.007812 -0.535156 3.773438 0.671875 4.296875 C 0.816406 4.378906 0.972656 4.472656 1.140625 4.578125 C 2.203125 5.210938 2.523438 6.195312 2.109375 7.53125 C 1.890625 8.21875 1.457031 9.113281 0.8125 10.21875 L -1.140625 9.0625 C -2.066406 8.132812 -2.472656 7.125 -2.359375 6.03125 C -2.304688 5.632812 -2.195312 5.289062 -2.03125 5 Z M -2.03125 5 "/></g></g></g><g fill="#000000" fill-opacity="1"><g transform="translate(120.422615, 106.515808)"><g><path d="M -3.875 5.53125 L -2.890625 4.40625 L 10.109375 15.640625 L 13 12.296875 L 12.46875 11.84375 L 11.09375 13.421875 L -0.140625 3.703125 C -0.765625 3.160156 -0.976562 2.648438 -0.78125 2.171875 C -0.65625 1.878906 -0.394531 1.507812 0 1.0625 L -0.515625 0.609375 L -4.8125 5.5625 C -4.5 5.832031 -4.25 5.875 -4.0625 5.6875 C -3.988281 5.644531 -3.925781 5.59375 -3.875 5.53125 Z M -3.875 5.53125 "/></g></g></g><g fill="#000000" fill-opacity="1"><g transform="translate(116.011217, 112.092304)"><g><path d="M -5.0625 -1.5 C -4.832031 -1.675781 -4.515625 -1.648438 -4.109375 -1.421875 C -3.578125 -1.109375 -3.1875 -0.96875 -2.9375 -1 C -2.75 -1.007812 -2.566406 -1.082031 -2.390625 -1.21875 C -1.929688 -1.601562 -1.816406 -2.03125 -2.046875 -2.5 C -2.085938 -2.582031 -2.128906 -2.65625 -2.171875 -2.71875 C -2.597656 -3.238281 -3.238281 -3.375 -4.09375 -3.125 C -4.5 -3 -4.875 -2.796875 -5.21875 -2.515625 C -6.332031 -1.597656 -6.742188 -0.125 -6.453125 1.90625 C -6.335938 2.71875 -6.117188 3.632812 -5.796875 4.65625 L -2.515625 15.09375 C -2.328125 15.601562 -2.304688 15.957031 -2.453125 16.15625 C -2.535156 16.25 -2.632812 16.34375 -2.75 16.4375 C -3.03125 16.675781 -3.132812 16.894531 -3.0625 17.09375 C -3.007812 17.1875 -2.929688 17.300781 -2.828125 17.4375 L 0.421875 14.78125 L -0.03125 14.21875 L -1.59375 15.5 L -4.34375 6.71875 L 3.890625 11 L 2.484375 12.15625 L 2.9375 12.71875 L 7.265625 9.1875 L 6.8125 8.625 L 5.796875 9.4375 L -5.109375 4.046875 C -5.835938 1.585938 -5.984375 -0.0703125 -5.546875 -0.9375 C -5.410156 -1.15625 -5.25 -1.34375 -5.0625 -1.5 Z M -5.0625 -1.5 "/></g></g></g><g fill="#000000" fill-opacity="1"><g transform="translate(106.575346, 119.817969)"><g><path d="M -4.40625 2.875 C -5.519531 3.46875 -6.066406 4.203125 -6.046875 5.078125 C -6.023438 5.367188 -5.953125 5.632812 -5.828125 5.875 C -5.441406 6.582031 -4.613281 6.921875 -3.34375 6.890625 C -3.070312 6.898438 -2.644531 6.878906 -2.0625 6.828125 C -0.476562 6.679688 0.660156 6.738281 1.359375 7 C 2.097656 7.269531 2.648438 7.753906 3.015625 8.453125 C 3.628906 9.597656 3.4375 10.742188 2.4375 11.890625 C 1.9375 12.429688 1.34375 12.882812 0.65625 13.25 C -0.445312 13.84375 -1.5 14.109375 -2.5 14.046875 C -2.25 14.515625 -2.21875 14.847656 -2.40625 15.046875 C -2.476562 15.097656 -2.578125 15.160156 -2.703125 15.234375 L -4.328125 12.203125 L -3.671875 11.84375 C -2.847656 13.320312 -1.625 13.632812 0 12.78125 C 1.164062 12.15625 1.707031 11.414062 1.625 10.5625 C 1.582031 10.34375 1.507812 10.132812 1.40625 9.9375 C 1.03125 9.238281 0.222656 8.910156 -1.015625 8.953125 C -1.316406 8.960938 -1.75 8.992188 -2.3125 9.046875 C -3.90625 9.203125 -5.039062 9.164062 -5.71875 8.9375 C -6.46875 8.65625 -7.035156 8.148438 -7.421875 7.421875 C -8.140625 6.078125 -7.910156 4.816406 -6.734375 3.640625 C -6.285156 3.160156 -5.738281 2.742188 -5.09375 2.390625 C -3.882812 1.773438 -2.679688 1.503906 -1.484375 1.578125 C -1.710938 1.148438 -1.738281 0.847656 -1.5625 0.671875 C -1.46875 0.597656 -1.359375 0.53125 -1.234375 0.46875 L 0.734375 4.171875 L 0.03125 4.546875 C -1.113281 2.484375 -2.59375 1.925781 -4.40625 2.875 Z M -4.40625 2.875 "/></g></g></g><g fill="#000000" fill-opacity="1"><g transform="translate(97.620786, 124.591348)"><g><path d="M 3.046875 10.578125 L 1.21875 11.1875 L -1.21875 4 C -2.113281 1.78125 -3.554688 0.972656 -5.546875 1.578125 C -7.179688 2.128906 -7.863281 3.445312 -7.59375 5.53125 C -7.59375 5.550781 -7.585938 5.570312 -7.578125 5.59375 L -6.828125 5.5 C -6.992188 3.820312 -6.640625 2.820312 -5.765625 2.5 C -4.835938 2.226562 -4.144531 2.738281 -3.6875 4.03125 L -1 11.9375 L -4.921875 13.28125 L -4.703125 13.921875 L -0.78125 12.578125 L 0.25 15.59375 L 2.28125 14.296875 L 1.4375 11.828125 L 3.265625 11.21875 Z M 3.046875 10.578125 "/></g></g></g><g fill="#000000" fill-opacity="1"><g transform="translate(89.613688, 127.239292)"><g/></g></g><g fill="#000000" fill-opacity="1"><g transform="translate(84.884699, 128.280271)"><g><path d="M -4.046875 1.890625 C -3.972656 2.523438 -3.632812 2.945312 -3.03125 3.15625 C -2.800781 3.226562 -2.582031 3.253906 -2.375 3.234375 C -1.75 3.148438 -1.335938 2.8125 -1.140625 2.21875 C -1.046875 1.96875 -1.015625 1.734375 -1.046875 1.515625 C -1.128906 0.878906 -1.476562 0.460938 -2.09375 0.265625 C -2.3125 0.191406 -2.53125 0.171875 -2.75 0.203125 C -3.375 0.273438 -3.789062 0.625 -4 1.25 C -4.0625 1.457031 -4.078125 1.671875 -4.046875 1.890625 Z M -4.046875 1.890625 "/></g></g></g><g fill="#000000" fill-opacity="1"><g transform="translate(79.946798, 128.916876)"><g/></g></g></svg>